<svg width="64" height="64" viewBox="0 0 64 64" fill="none" xmlns="http://www.w3.org/2000/svg">
<path fill-rule="evenodd" clip-rule="evenodd" d="M37.1342 2.73392C39.447 3.921 41.5694 5.42824 43.4426 7.19746L45.5025 5.01649C43.4255 3.05475 41.0712 1.38257 38.504 0.0649414L37.1342 2.73392ZM45.4929 9.3553C47.1679 11.3207 48.5693 13.5254 49.6387 15.9103L52.3761 14.6829C51.1888 12.035 49.6337 9.5889 47.7762 7.4094L45.4929 9.3553ZM50.6958 18.6576C51.4808 21.0824 51.9367 23.6566 52.01 26.3285L55.0089 26.2463C54.9277 23.2849 54.4221 20.4274 53.55 17.7336L50.6958 18.6576ZM51.9361 29.2592C51.728 31.9185 51.14 34.4697 50.2267 36.8595L53.029 37.9305C54.0435 35.276 54.6962 32.4431 54.927 29.4932L51.9361 29.2592ZM24.6579 47.7504C36.067 47.7504 45.3158 38.5015 45.3158 27.0925C45.3158 15.6834 36.067 6.43457 24.6579 6.43457C13.2489 6.43457 4 15.6834 4 27.0925C4 38.5015 13.2489 47.7504 24.6579 47.7504ZM24.6579 50.7504C30.651 50.7504 36.1236 48.522 40.2923 44.8485L43.4806 48.0369L40.5571 51.0213L52.1495 62.3771C54.3896 64.5715 57.9845 64.5344 60.1788 62.2943C62.3732 60.0542 62.3362 56.4594 60.0961 54.265L48.5037 42.9092L45.5801 45.8937L42.4136 42.7272C46.0873 38.5585 48.3158 33.0857 48.3158 27.0925C48.3158 14.0266 37.7238 3.43457 24.6579 3.43457C11.592 3.43457 1 14.0266 1 27.0925C1 40.1584 11.592 50.7504 24.6579 50.7504ZM38.6917 27.0933C38.6917 34.8439 32.4086 41.127 24.658 41.127C16.9074 41.127 10.6243 34.8439 10.6243 27.0933C10.6243 19.3427 16.9074 13.0596 24.658 13.0596C32.4086 13.0596 38.6917 19.3427 38.6917 27.0933ZM41.6917 27.0933C41.6917 36.5007 34.0654 44.127 24.658 44.127C15.2505 44.127 7.62427 36.5007 7.62427 27.0933C7.62427 17.6858 15.2505 10.0596 24.658 10.0596C34.0654 10.0596 41.6917 17.6858 41.6917 27.0933ZM23.935 24.7273C25.051 25.3614 26.17 26.2679 27.0235 27.5289C27.8771 26.2679 28.996 25.3614 30.1121 24.7273C28.996 24.0931 27.8771 23.1867 27.0235 21.9256C26.17 23.1867 25.051 24.0931 23.935 24.7273ZM25.5235 16.6836H28.5235C28.5235 19.7224 30.0779 21.2884 31.6938 22.1746C32.5289 22.6325 33.3793 22.9013 34.0307 23.0544C34.3533 23.1302 34.6189 23.1757 34.7982 23.2018C34.8877 23.2148 34.955 23.2229 34.9965 23.2275C35.0172 23.2297 35.0314 23.2311 35.0386 23.2318L35.0401 23.232C35.0399 23.232 35.0398 23.2319 35.0388 23.2435V26.211C35.0398 26.2226 35.0399 26.2226 35.0401 26.2226L35.0386 26.2228C35.0314 26.2234 35.0172 26.2248 34.9965 26.2271C34.955 26.2317 34.8877 26.2397 34.7982 26.2527C34.6189 26.2788 34.3533 26.3244 34.0307 26.4002C33.3793 26.5533 32.5289 26.8221 31.6938 27.28C30.0779 28.1661 28.5235 29.7322 28.5235 32.771H25.5235C25.5235 29.7322 23.9692 28.1661 22.3532 27.28C21.5182 26.8221 20.6677 26.5533 20.0163 26.4002C19.6937 26.3244 19.4282 26.2788 19.2488 26.2527C19.1594 26.2397 19.0921 26.2317 19.0506 26.2271C19.0299 26.2248 19.0157 26.2234 19.0084 26.2228L19.007 26.2226C19.0071 26.2226 19.0072 26.2226 19.0083 26.211V23.2435L19.0072 23.2329C19.0071 23.232 19.0071 23.232 19.007 23.232L19.0084 23.2318C19.0157 23.2311 19.0299 23.2297 19.0506 23.2275C19.0921 23.2229 19.1594 23.2148 19.2488 23.2018C19.4282 23.1757 19.6937 23.1302 20.0163 23.0544C20.6677 22.9013 21.5182 22.6325 22.3532 22.1746C23.9692 21.2884 25.5235 19.7224 25.5235 16.6836ZM54.2488 60.234L44.7995 50.9776L48.5474 47.1516L57.9967 56.4081C59.0532 57.443 59.0707 59.1385 58.0358 60.195C57.0008 61.2515 55.3054 61.269 54.2488 60.234Z" fill="#FF5533"/>
</svg>
