<svg width="64" height="64" viewBox="0 0 64 64" fill="none" xmlns="http://www.w3.org/2000/svg">
<path fill-rule="evenodd" clip-rule="evenodd" d="M50 9V12H47V9H23V12H20V9H10V16H60V9H50ZM50 6H63V43.5C63 48.7467 58.7467 53 53.5 53H16.5C11.2533 53 7 48.7467 7 43.5V6H20V1H23V6H47V1H50V6ZM60 19H10V43.5C10 47.0899 12.9101 50 16.5 50H53.5C57.0899 50 60 47.0899 60 43.5V19ZM35.0607 25.5608L28.6214 32H38.5C42.6421 32 46 35.3579 46 39.5V42H43V39.5C43 37.0147 40.9853 35 38.5 35H28.6212L35.0607 41.4395L32.9393 43.5608L22.8787 33.5001L32.9393 23.4395L35.0607 25.5608ZM0 35V27H3V35H0ZM0 43.5V38H3V43.5C3 44.732 3.15004 45.912 3.4311 47.0248L0.522425 47.7594C0.179933 46.4033 0 44.9764 0 43.5ZM8.17915 57.8537C5.65713 56.4259 3.58144 54.3517 2.15193 51.8308L4.76154 50.351C5.92315 52.3994 7.60772 54.0828 9.65714 55.2431L8.17915 57.8537ZM16.5 60C15.0285 60 13.6063 59.8213 12.2543 59.481L12.9864 56.5717C14.096 56.851 15.2722 57 16.5 57H22V60H16.5ZM33 60H25V57H33V60ZM44 60H36V57H44V60ZM55 60H47V57H55V60Z" fill="#FF5533"/>
</svg>
