<svg width="64" height="64" viewBox="0 0 64 64" fill="none" xmlns="http://www.w3.org/2000/svg">
<path fill-rule="evenodd" clip-rule="evenodd" d="M26 14C26 15.505 25.4278 17.3497 24.3211 19.4268C23.2323 21.4703 21.7439 23.5211 20.1953 25.3794C18.6818 27.1955 17.1601 28.7694 15.9999 29.903C14.8397 28.7694 13.318 27.1956 11.8046 25.3795C10.256 23.5211 8.76759 21.4703 7.67889 19.4269C6.57223 17.3497 6 15.505 6 14C6 8.57098 10.4936 4 15.9998 4C21.5062 4 26 8.57108 26 14ZM29 14C29 22.8 15.9998 34 15.9998 34C15.9998 34 3 22.8 3 14C3 6.93075 8.82014 1 15.9998 1C23.1795 1 29 6.93075 29 14ZM18 14C18 15.1046 17.1046 16 16 16C14.8954 16 14 15.1046 14 14C14 12.8954 14.8954 12 16 12C17.1046 12 18 12.8954 18 14ZM21 14C21 16.7614 18.7614 19 16 19C13.2386 19 11 16.7614 11 14C11 11.2386 13.2386 9 16 9C18.7614 9 21 11.2386 21 14ZM50 38C51.1046 38 52 37.1046 52 36C52 34.8954 51.1046 34 50 34C48.8954 34 48 34.8954 48 36C48 37.1046 48.8954 38 50 38ZM50 41C52.7614 41 55 38.7614 55 36C55 33.2386 52.7614 31 50 31C47.2386 31 45 33.2386 45 36C45 38.7614 47.2386 41 50 41ZM60 36C60 37.505 59.4278 39.3497 58.3211 41.4268C57.2323 43.4703 55.7439 45.5211 54.1953 47.3794C52.6818 49.1955 51.1601 50.7694 49.9999 51.903C48.8397 50.7694 47.318 49.1956 45.8046 47.3795C44.256 45.5211 42.7676 43.4703 41.6789 41.4269C40.5722 39.3497 40 37.505 40 36C40 30.571 44.4936 26 49.9998 26C55.5062 26 60 30.5711 60 36ZM63 36C63 44.8 49.9998 56 49.9998 56C49.9998 56 37 44.8 37 36C37 28.9308 42.8201 23 49.9998 23C57.1795 23 63 28.9308 63 36ZM18 50.5C18 51.6046 17.1046 52.5 16 52.5C14.8954 52.5 14 51.6046 14 50.5C14 49.3954 14.8954 48.5 16 48.5C17.1046 48.5 18 49.3954 18 50.5ZM16 63.5C17.1046 63.5 18 62.6046 18 61.5C18 60.3954 17.1046 59.5 16 59.5C14.8954 59.5 14 60.3954 14 61.5C14 62.6046 14.8954 63.5 16 63.5ZM39 61.5C39 62.6046 38.1046 63.5 37 63.5C35.8954 63.5 35 62.6046 35 61.5C35 60.3954 35.8954 59.5 37 59.5C38.1046 59.5 39 60.3954 39 61.5ZM25 38H14V41H25C27.2091 41 29 42.7909 29 45C29 47.2091 27.2091 49 25 49H21V52H25C28.866 52 32 48.866 32 45C32 41.134 28.866 38 25 38ZM4 56C4 53.7909 5.79086 52 8 52H11V49H8C4.13401 49 1 52.134 1 56C1 59.866 4.13401 63 8 63H11V60H8C5.79086 60 4 58.2091 4 56ZM32 60H21V63H32V60ZM52 60H42V63H52V60Z" fill="#FF5533"/>
</svg>
